<svg width="16" height="16" viewBox="0 0 16 16" fill="none" xmlns="http://www.w3.org/2000/svg">
<g clip-path="url(#clip0_508_14)">
<g clip-path="url(#clip1_508_14)">
<path d="M15.1172 0H0.882805C0.395245 0 0 0.395245 0 0.882805V15.1172C0 15.6048 0.395245 16 0.882805 16H15.1172C15.6048 16 16 15.6048 16 15.1172V0.882805C16 0.395245 15.6048 0 15.1172 0Z" fill="#3D5A98"/>
<path d="M10.5432 16V9.61392H12.6069L12.9155 7.12526H10.5432V5.53675C10.5432 4.81635 10.7364 4.32447 11.7307 4.32447H13V2.09498C12.3853 2.02858 11.7677 1.99695 11.1497 2.00023C9.32222 2.00023 8.06364 3.15678 8.06364 5.29011V7.12526H6V9.61392H8.06364V16H10.5432Z" fill="white"/>
</g>
</g>
<defs>
<clipPath id="clip0_508_14">
<rect width="16" height="16" fill="white"/>
</clipPath>
<clipPath id="clip1_508_14">
<rect width="16" height="16" fill="white"/>
</clipPath>
</defs>
</svg>
